<?xml version="1.0" encoding="utf-8"?>
<!-- Generator: Adobe Illustrator 23.0.1, SVG Export Plug-In . SVG Version: 6.00 Build 0)  -->
<svg version="1.1" id="Layer_1" xmlns="http://www.w3.org/2000/svg" xmlns:xlink="http://www.w3.org/1999/xlink" x="0px" y="0px"
	 viewBox="0 0 25 25" style="enable-background:new 0 0 25 25;" xml:space="preserve">
<style type="text/css">
	.st0{fill:#757575;}
</style>
<g>
	<path class="st0" d="M12.5,2C18.3,2,23,6.7,23,12.5S18.3,23,12.5,23S2,18.3,2,12.5S6.7,2,12.5,2 M12.5,0C5.6,0,0,5.6,0,12.5
		C0,19.4,5.6,25,12.5,25S25,19.4,25,12.5C25,5.6,19.4,0,12.5,0L12.5,0z"/>
</g>
<g>
	<polygon class="st0" points="12.5,5.3 10.5,5.3 10.5,14.3 12.5,14.3 12.5,5.3 	"/>
</g>
<g>
	<polygon class="st0" points="19.5,12.3 10.5,12.3 10.5,14.3 19.5,14.3 19.5,12.3 	"/>
</g>
</svg>
