<?xml version="1.0" encoding="utf-8"?>
<!-- Generator: Adobe Illustrator 23.0.1, SVG Export Plug-In . SVG Version: 6.00 Build 0)  -->
<svg version="1.1" id="Layer_1" xmlns="http://www.w3.org/2000/svg" xmlns:xlink="http://www.w3.org/1999/xlink" x="0px" y="0px"
	 viewBox="0 0 16 16" style="enable-background:new 0 0 16 16;" xml:space="preserve">
<style type="text/css">
	.st0{fill-rule:evenodd;clip-rule:evenodd;fill:#ffffff;}
</style>
<title>Untitled-4</title>
<path class="st0" d="M15.9,15L15.9,15l-7-7l6.9-6.9c0.2-0.3,0.2-0.7,0-0.9c-0.3-0.2-0.7-0.2-0.9,0L8,7.1L1.1,0.2
	C0.8,0,0.4,0,0.2,0.3C0,0.5,0,0.9,0.2,1.1L7.1,8l-6.9,6.9c-0.2,0.3-0.2,0.7,0,0.9c0.2,0.3,0.6,0.3,0.9,0c0,0,0,0,0,0L8,8.9l6.9,6.9
	c0.2,0.3,0.6,0.3,0.9,0.1C16.1,15.7,16.1,15.2,15.9,15z"/>
</svg>
