<svg xmlns="http://www.w3.org/2000/svg" viewBox="0 0 23 25" width="23" height="25">
	<style>
		tspan { white-space:pre }
		.shp0 { fill: #757575 } 
	</style>
	<g id="Main Content - 2">
		<g id="Tabbing">
			<path id="Forma 1" class="shp0" d="M20.68 8.59L20.11 8.59L20.11 5.81C20.11 5.79 20.11 5.77 20.11 5.75C20.11 5.64 20.07 5.53 20 5.45L15.42 0.16C15.42 0.16 15.42 0.16 15.42 0.16C15.39 0.13 15.36 0.1 15.32 0.08C15.31 0.07 15.3 0.07 15.29 0.06C15.26 0.05 15.23 0.03 15.2 0.02C15.19 0.02 15.19 0.02 15.18 0.01C15.14 0.01 15.11 0 15.07 0L3.82 0C3.31 0 2.89 0.42 2.89 0.94L2.89 8.59L2.32 8.59C1.59 8.59 0.99 9.19 0.99 9.93L0.99 16.93C0.99 17.67 1.59 18.27 2.32 18.27L2.89 18.27L2.89 23.06C2.89 23.58 3.31 24 3.82 24L19.18 24C19.69 24 20.11 23.58 20.11 23.06L20.11 18.27L20.68 18.27C21.42 18.27 22.01 17.67 22.01 16.93L22.01 9.93C22.01 9.19 21.42 8.59 20.68 8.59ZM3.82 0.94L14.6 0.94L14.6 5.76C14.6 6.02 14.81 6.23 15.07 6.23L19.18 6.23L19.18 8.59L3.82 8.59L3.82 0.94ZM14.99 13.05C14.99 15.19 13.71 16.48 11.82 16.48C9.91 16.48 8.79 15.02 8.79 13.16C8.79 11.21 10.02 9.75 11.93 9.75C13.91 9.75 14.99 11.25 14.99 13.05ZM2.42 16.35L2.42 9.94C2.96 9.85 3.65 9.8 4.39 9.8C5.62 9.8 6.41 10.03 7.03 10.5C7.7 11 8.13 11.81 8.13 12.96C8.13 14.21 7.68 15.07 7.05 15.6C6.37 16.17 5.34 16.44 4.08 16.44C3.32 16.44 2.78 16.4 2.42 16.35ZM19.18 22.81L3.82 22.81L3.82 18.27L19.18 18.27L19.18 22.81ZM19.25 15.25C19.69 15.25 20.18 15.16 20.47 15.04L20.69 16.19C20.42 16.33 19.82 16.47 19.03 16.47C16.8 16.47 15.65 15.07 15.65 13.21C15.65 10.98 17.22 9.75 19.18 9.75C19.93 9.75 20.51 9.9 20.76 10.04L20.47 11.21C20.17 11.08 19.76 10.96 19.24 10.96C18.08 10.96 17.18 11.67 17.18 13.12C17.18 14.43 17.95 15.25 19.25 15.25ZM6.57 13.01C6.58 11.65 5.8 10.94 4.55 10.94C4.22 10.94 4.01 10.96 3.88 10.99L3.88 15.26C4.01 15.29 4.21 15.29 4.39 15.29C5.71 15.3 6.57 14.57 6.57 13.01ZM10.33 13.13C10.33 14.41 10.92 15.31 11.9 15.31C12.88 15.31 13.45 14.36 13.45 13.09C13.45 11.92 12.89 10.92 11.89 10.92C10.9 10.92 10.33 11.87 10.33 13.13Z" />
		</g>
	</g>
</svg>