<svg width="10" height="16" viewBox="0 0 10 16" fill="none" xmlns="http://www.w3.org/2000/svg">
<path d="M4.554 15.044V13.226C3.81 13.202 3.132 13.13 2.52 13.01C1.908 12.89 1.374 12.728 0.918 12.524V10.508C1.374 10.724 1.938 10.922 2.61 11.102C3.282 11.282 3.93 11.384 4.554 11.408V8.348C3.678 8.036 2.97 7.724 2.43 7.412C1.902 7.088 1.512 6.722 1.26 6.314C1.02 5.894 0.9 5.396 0.9 4.82C0.9 3.92 1.236 3.212 1.908 2.696C2.58 2.168 3.462 1.862 4.554 1.778V0.337999H5.742V1.742C6.402 1.766 7.014 1.844 7.578 1.976C8.142 2.108 8.682 2.282 9.198 2.498L8.496 4.28C8.052 4.1 7.59 3.956 7.11 3.848C6.642 3.728 6.186 3.65 5.742 3.614V6.602C6.438 6.83 7.068 7.082 7.632 7.358C8.196 7.634 8.646 7.982 8.982 8.402C9.318 8.81 9.486 9.344 9.486 10.004C9.486 10.868 9.168 11.582 8.532 12.146C7.908 12.71 6.978 13.052 5.742 13.172V15.044H4.554ZM4.554 6.152V3.65C3.606 3.758 3.132 4.13 3.132 4.766C3.132 5.102 3.24 5.372 3.456 5.576C3.672 5.78 4.038 5.972 4.554 6.152ZM5.742 11.336C6.75 11.204 7.254 10.802 7.254 10.13C7.254 9.806 7.134 9.548 6.894 9.356C6.666 9.152 6.282 8.96 5.742 8.78V11.336Z" fill="#AAAAAA"/>
</svg>
