<svg width="15" height="10" viewBox="0 0 15 10" fill="none" xmlns="http://www.w3.org/2000/svg">
<path d="M6 7H9V6.25H8V2.75H7.10938L5.95313 3.82031L6.55469 4.44531C6.77344 4.2526 6.91667 4.10417 6.98438 4H7V6.25H6V7ZM9.83594 3.89062C9.94531 4.26562 10 4.63542 10 5C10 5.36458 9.94531 5.73437 9.83594 6.10937C9.72656 6.48437 9.57031 6.83333 9.36719 7.15625C9.16927 7.47917 8.90625 7.74219 8.57813 7.94531C8.25 8.14844 7.89063 8.25 7.5 8.25C7.10938 8.25 6.75 8.14844 6.42188 7.94531C6.09375 7.74219 5.82813 7.47917 5.625 7.15625C5.42708 6.83333 5.27344 6.48437 5.16406 6.10937C5.05469 5.73437 5 5.36458 5 5C5 4.63542 5.05469 4.26562 5.16406 3.89062C5.27344 3.51562 5.42708 3.16667 5.625 2.84375C5.82813 2.52083 6.09375 2.25781 6.42188 2.05469C6.75 1.85156 7.10938 1.75 7.5 1.75C7.89063 1.75 8.25 1.85156 8.57813 2.05469C8.90625 2.25781 9.16927 2.52083 9.36719 2.84375C9.57031 3.16667 9.72656 3.51562 9.83594 3.89062ZM14 7V3C13.4479 3 12.9766 2.80469 12.5859 2.41406C12.1953 2.02344 12 1.55208 12 0.999999H3C3 1.55208 2.80469 2.02344 2.41406 2.41406C2.02344 2.80469 1.55208 3 1 3V7C1.55208 7 2.02344 7.19531 2.41406 7.58594C2.80469 7.97656 3 8.44792 3 9H12C12 8.44792 12.1953 7.97656 12.5859 7.58594C12.9766 7.19531 13.4479 7 14 7ZM15 0.5V9.5C15 9.63542 14.9505 9.7526 14.8516 9.85156C14.7526 9.95052 14.6354 10 14.5 10H0.5C0.364583 10 0.247396 9.95052 0.148438 9.85156C0.0494792 9.7526 0 9.63542 0 9.5V0.5C0 0.364583 0.0494792 0.247396 0.148438 0.148437C0.247396 0.0494788 0.364583 -2.38419e-07 0.5 -2.38419e-07H14.5C14.6354 -2.38419e-07 14.7526 0.0494788 14.8516 0.148437C14.9505 0.247396 15 0.364583 15 0.5Z" fill="white"/>
</svg>
