<svg xmlns="http://www.w3.org/2000/svg" viewBox="0 0 23 23" width="23" height="23">
	<style>
		tspan { white-space:pre }
		.shp0 { fill: #757575 } 
	</style>
	<g id="Main Content">
		<g id="Organization - Tab">
			<path id="Forma 1" class="shp0" d="M22.12 7.72C20.96 5.01 18.99 3.04 16.26 1.88C14.9 1.3 13.49 1 11.99 1C10.5 1 9.09 1.29 7.72 1.88C5.02 3.04 3.03 5.01 1.87 7.72C1.28 9.07 1 10.5 1 11.99C1 13.48 1.28 14.91 1.87 16.27C3.03 18.98 5.02 20.96 7.72 22.12C9.09 22.71 10.5 23 11.99 23C13.49 23 14.9 22.7 16.26 22.12C18.99 20.96 20.96 18.98 22.12 16.27C22.71 14.91 23 13.48 23 11.99C23 10.5 22.71 9.08 22.12 7.72ZM8.34 3.05C7.39 4.25 6.69 5.78 6.24 7.63L3.37 7.63C4.43 5.57 6.21 3.92 8.34 3.05ZM2.34 11.99C2.34 10.94 2.5 9.93 2.83 8.96L5.98 8.96C5.82 9.98 5.75 10.99 5.75 11.99C5.75 12.97 5.82 13.97 5.98 15L2.8 15C2.49 14.02 2.34 13.01 2.34 11.99ZM3.37 16.32L6.24 16.32C6.69 18.21 7.39 19.76 8.34 20.95C6.17 20.05 4.39 18.4 3.37 16.32ZM11.32 21.56C10.54 21.33 9.8 20.75 9.14 19.81C8.48 18.87 7.98 17.7 7.63 16.32L11.32 16.32L11.32 21.56ZM11.32 15L7.33 15C7.17 13.93 7.09 12.93 7.09 11.99C7.09 10.98 7.17 9.97 7.35 8.95L11.32 8.95L11.32 15L11.32 15ZM11.32 7.63L7.63 7.63C8 6.26 8.51 5.11 9.17 4.18C9.83 3.24 10.54 2.66 11.32 2.44L11.32 7.63ZM20.63 7.63L17.76 7.63C17.31 5.78 16.61 4.25 15.66 3.05C17.79 3.92 19.57 5.57 20.63 7.63ZM12.68 2.44C13.46 2.66 14.17 3.24 14.83 4.18C15.49 5.11 16 6.26 16.37 7.63L12.68 7.63L12.68 2.44ZM12.68 8.95L16.65 8.95C16.83 9.97 16.91 10.98 16.91 11.99C16.91 12.93 16.83 13.93 16.67 15L12.68 15L12.68 8.95ZM12.68 21.56L12.68 16.32L16.37 16.32C16.01 17.7 15.5 18.87 14.84 19.81C14.19 20.76 13.47 21.34 12.68 21.56ZM15.66 20.95C16.61 19.76 17.31 18.21 17.76 16.32L20.63 16.32C19.61 18.4 17.83 20.05 15.66 20.95ZM21.2 15L18.02 15C18.18 13.97 18.25 12.97 18.25 11.99C18.25 10.99 18.18 9.98 18.02 8.95L21.17 8.95C21.5 9.93 21.66 10.94 21.66 11.99C21.66 13.01 21.51 14.02 21.2 15Z" />
		</g>
	</g>
</svg>