<svg xmlns="http://www.w3.org/2000/svg" viewBox="0 0 28 18" width="28" height="18">
	<style>
		tspan { white-space:pre }
		.shp0 { fill: #757575 } 
	</style>
	<g id="Main Content">
		<g id="Content">
			<path id="Forma 1 copy" class="shp0" d="M17.55 11.2C18.92 10.16 19.75 8.46 19.75 6.67C19.75 3.55 17.27 1 14.25 1C11.22 1 8.75 3.55 8.75 6.67C8.75 8.46 9.57 10.16 10.95 11.2C8.29 12.43 6.37 14.98 6 18L7.83 18C8.29 14.79 11.04 12.33 14.25 12.33C17.46 12.33 20.21 14.79 20.67 18L22.5 18C22.13 14.98 20.21 12.43 17.55 11.2L17.55 11.2ZM14.25 10.44C12.23 10.44 10.58 8.74 10.58 6.67C10.58 4.59 12.23 2.89 14.25 2.89C16.27 2.89 17.92 4.59 17.92 6.67C17.92 8.74 16.27 10.44 14.25 10.44L14.25 10.44ZM24.97 11.01C25.71 10.07 26.17 8.84 26.17 7.61C26.17 4.21 23.23 1.57 20.02 1.94C20.3 2.23 20.48 2.61 20.67 2.98C20.85 3.27 20.94 3.55 21.03 3.83C23.14 4.21 24.33 5.82 24.33 7.61C24.33 8.84 23.69 9.97 22.87 10.63C22.59 10.82 22.5 11.11 22.5 11.39C22.5 11.86 22.77 12.24 23.23 12.33C24.88 12.71 26.17 14.22 26.17 16.02L28 16.02C28 13.94 26.81 11.96 24.97 11.01L24.97 11.01ZM4.04 11.02C3.3 10.09 2.84 8.87 2.84 7.65C2.84 4.28 5.79 1.66 9.01 2.04C8.73 2.32 8.55 2.69 8.36 3.07C8.18 3.35 8.09 3.63 7.99 3.91C5.88 4.28 4.68 5.88 4.68 7.65C4.68 8.87 5.33 9.99 6.15 10.65C6.43 10.84 6.52 11.12 6.52 11.4C6.52 11.87 6.25 12.24 5.79 12.33C4.13 12.71 2.84 14.21 2.84 15.99L1 15.99C1 13.93 2.2 11.96 4.04 11.02L4.04 11.02Z" />
		</g>
	</g>
</svg>