<svg width="18" height="17" viewBox="0 0 18 17" fill="none" xmlns="http://www.w3.org/2000/svg">
<path d="M9.44196 16.1049C9.32143 16.2254 9.17411 16.2857 9 16.2857C8.82589 16.2857 8.67857 16.2254 8.55804 16.1049L2.29018 10.058C2.22321 10.0045 2.12946 9.91741 2.00893 9.79688C1.89509 9.67634 1.71094 9.4587 1.45647 9.14397C1.20201 8.82254 0.97433 8.49442 0.773438 8.1596C0.572545 7.82478 0.391741 7.41964 0.231027 6.9442C0.0770089 6.46875 0 6.0067 0 5.55804C0 4.08482 0.425223 2.93304 1.27567 2.10268C2.12612 1.27232 3.30134 0.857142 4.80134 0.857142C5.21652 0.857142 5.63839 0.930803 6.06696 1.07812C6.50223 1.21875 6.90402 1.41295 7.27232 1.66071C7.64732 1.90178 7.96875 2.12946 8.23661 2.34375C8.50446 2.55804 8.75893 2.78571 9 3.02679C9.24107 2.78571 9.49554 2.55804 9.76339 2.34375C10.0313 2.12946 10.3493 1.90178 10.7176 1.66071C11.0926 1.41295 11.4944 1.21875 11.923 1.07812C12.3583 0.930803 12.7835 0.857142 13.1987 0.857142C14.6987 0.857142 15.8739 1.27232 16.7243 2.10268C17.5748 2.93304 18 4.08482 18 5.55804C18 7.03795 17.2333 8.54464 15.6998 10.0781L9.44196 16.1049Z" fill="#FF5E5E"/>
</svg>
