<svg width="18" height="17" viewBox="0 0 18 17" fill="none" xmlns="http://www.w3.org/2000/svg">
<path d="M16.7143 5.55804C16.7143 5.01562 16.6406 4.53683 16.4933 4.12165C16.3527 3.70647 16.1685 3.37835 15.9408 3.13728C15.7199 2.88951 15.4487 2.68862 15.1272 2.5346C14.8058 2.38058 14.4911 2.27678 14.183 2.22321C13.875 2.16964 13.5469 2.14286 13.1987 2.14286C12.8504 2.14286 12.4754 2.22991 12.0737 2.40402C11.6719 2.57143 11.3002 2.78571 10.9587 3.04688C10.6239 3.30134 10.3359 3.54241 10.0949 3.77009C9.8538 3.99107 9.6529 4.19531 9.49219 4.38281C9.37165 4.53013 9.20759 4.60379 9 4.60379C8.79241 4.60379 8.62835 4.53013 8.50781 4.38281C8.3471 4.19531 8.14621 3.99107 7.90513 3.77009C7.66406 3.54241 7.37277 3.30134 7.03125 3.04688C6.69643 2.78571 6.32813 2.57143 5.92634 2.40402C5.52455 2.22991 5.14955 2.14286 4.80134 2.14286C4.45313 2.14286 4.125 2.16964 3.81696 2.22321C3.50893 2.27678 3.1942 2.38058 2.87277 2.5346C2.55134 2.68862 2.27679 2.88951 2.04911 3.13728C1.82813 3.37835 1.64397 3.70647 1.49665 4.12165C1.35603 4.53683 1.28571 5.01562 1.28571 5.55804C1.28571 6.68304 1.91183 7.87165 3.16406 9.12388L9 14.7489L14.8259 9.13393C16.0848 7.875 16.7143 6.68304 16.7143 5.55804ZM18 5.55804C18 7.03795 17.2333 8.54464 15.6998 10.0781L9.44196 16.1049C9.32143 16.2254 9.17411 16.2857 9 16.2857C8.82589 16.2857 8.67857 16.2254 8.55804 16.1049L2.29018 10.058C2.22321 10.0045 2.12946 9.91741 2.00893 9.79688C1.89509 9.67634 1.71094 9.4587 1.45647 9.14397C1.20201 8.82254 0.97433 8.49442 0.773438 8.1596C0.572545 7.82478 0.391741 7.41964 0.231027 6.9442C0.0770089 6.46875 0 6.0067 0 5.55804C0 4.08482 0.425223 2.93304 1.27567 2.10268C2.12612 1.27232 3.30134 0.857142 4.80134 0.857142C5.21652 0.857142 5.63839 0.930803 6.06696 1.07812C6.50223 1.21875 6.90402 1.41295 7.27232 1.66071C7.64732 1.90178 7.96875 2.12946 8.23661 2.34375C8.50446 2.55804 8.75893 2.78571 9 3.02679C9.24107 2.78571 9.49554 2.55804 9.76339 2.34375C10.0313 2.12946 10.3493 1.90178 10.7176 1.66071C11.0926 1.41295 11.4944 1.21875 11.923 1.07812C12.3583 0.930803 12.7835 0.857142 13.1987 0.857142C14.6987 0.857142 15.8739 1.27232 16.7243 2.10268C17.5748 2.93304 18 4.08482 18 5.55804Z" fill="#AAAAAA"/>
</svg>
