<svg width="15" height="18" viewBox="0 0 15 18" fill="none" xmlns="http://www.w3.org/2000/svg">
<path d="M7.96875 0.833374C4.0875 0.833374 0.9375 3.45837 0.9375 6.69171C0.9375 7.78337 1.30312 8.85004 1.9875 9.77504L7.56562 17.2667C7.67812 17.4167 7.86563 17.5 8.0625 17.5C8.07188 17.5 8.07187 17.5 8.07187 17.5C8.27812 17.5 8.46563 17.4084 8.56875 17.2667L14.0062 9.69171C14.6531 8.79171 15 7.75004 15 6.69171C15 3.45837 11.85 0.833374 7.96875 0.833374ZM13.0031 9.19171L8.05313 16.075L2.98125 9.25837C2.40938 8.49171 2.1 7.60004 2.1 6.69171C2.1 4.00004 4.73438 1.80004 7.96875 1.80004C11.2031 1.80004 13.8281 4.00004 13.8281 6.69171C13.8281 7.57504 13.5469 8.44171 13.0031 9.19171ZM7.96875 3.76671C6.02813 3.76671 4.45312 5.07504 4.45312 6.69171C4.45312 8.30004 6 9.62504 7.96875 9.62504C9.95625 9.62504 11.4844 8.28337 11.4844 6.69171C11.4844 5.07504 9.90938 3.76671 7.96875 3.76671ZM7.96875 8.65004C6.66563 8.65004 5.61562 7.77504 5.61562 6.69171C5.61562 5.61671 6.675 4.73337 7.96875 4.73337C9.2625 4.73337 10.3125 5.61671 10.3125 6.69171C10.3125 7.75837 9.29062 8.65004 7.96875 8.65004Z" fill="white"/>
</svg>
