<svg xmlns="http://www.w3.org/2000/svg" viewBox="0 0 16 21" width="16" height="21">
	<style>
		tspan { white-space:pre }
		.shp0 { fill: #ffffff } 
	</style>
	<g id="Main Content">
		<g id="1">
			<g id="Image content">
				<path id="Forma 1" class="shp0" d="M8.5 1C4.36 1 1 4.15 1 8.03C1 9.34 1.39 10.62 2.12 11.73L8.07 20.72C8.19 20.9 8.39 21 8.6 21C8.61 21 8.61 21 8.61 21C8.83 21 9.03 20.89 9.14 20.72L14.94 11.63C15.63 10.55 16 9.3 16 8.03C16 4.15 12.64 1 8.5 1ZM13.87 11.03L8.59 19.29L3.18 11.11C2.57 10.19 2.24 9.12 2.24 8.03C2.24 4.8 5.05 2.16 8.5 2.16C11.95 2.16 14.75 4.8 14.75 8.03C14.75 9.09 14.45 10.13 13.87 11.03ZM8.5 4.52C6.43 4.52 4.75 6.09 4.75 8.03C4.75 9.96 6.4 11.55 8.5 11.55C10.62 11.55 12.25 9.94 12.25 8.03C12.25 6.09 10.57 4.52 8.5 4.52ZM8.5 10.38C7.11 10.38 5.99 9.33 5.99 8.03C5.99 6.74 7.12 5.68 8.5 5.68C9.88 5.68 11 6.74 11 8.03C11 9.31 9.91 10.38 8.5 10.38Z" />
			</g>
		</g>
	</g>
</svg>