<svg xmlns="http://www.w3.org/2000/svg" viewBox="0 0 23 18" width="23" height="18">
	<style>
		tspan { white-space:pre }
		.shp0 { fill: #757575 } 
	</style>
	<g id="Main Content">
		<g id="Organization - Tab">
			<path id="Forma 1" class="shp0" d="M21.07 1L2.93 1C1.87 1 1 1.88 1 2.96L1 16.04C1 17.12 1.86 18 2.93 18L21.07 18C22.13 18 23 17.12 23 16.04L23 2.96C23 1.88 22.14 1 21.07 1ZM20.8 2.31L12.04 11.19L3.21 2.31L20.8 2.31ZM2.29 15.77L2.29 3.23L8.5 9.47L2.29 15.77ZM3.2 16.69L9.41 10.39L11.59 12.58C11.84 12.83 12.25 12.83 12.5 12.58L14.62 10.42L20.8 16.69L3.2 16.69ZM21.71 15.77L15.53 9.5L21.71 3.23L21.71 15.77Z" />
		</g>
	</g>
</svg>