<svg width="18" height="18" viewBox="0 0 18 18" fill="none" xmlns="http://www.w3.org/2000/svg">
<path d="M18 15.0469H15.0469V18H13.6406V15.0469H10.6875V13.6406H13.6406V10.6875H15.0469V13.6406H18V15.0469ZM10.5224 7.85522C10.5842 8.13332 10.6172 8.42226 10.6172 8.71875C10.6172 9.93343 10.069 11.0224 9.20723 11.7517C9.23181 11.7614 9.25667 11.7709 9.28125 11.7809V13.3348C8.52841 12.9246 7.66599 12.6914 6.75 12.6914V12.69C6.73833 12.6903 6.72652 12.6903 6.71484 12.6906V12.6914C3.78767 12.6914 1.40625 15.0728 1.40625 18H0C0 15.2096 1.71112 12.8116 4.13896 11.7992C3.24426 11.0702 2.67188 9.96007 2.67188 8.71875C2.67188 6.52821 4.45399 4.74609 6.64453 4.74609C6.90491 4.74609 7.15938 4.7715 7.40588 4.81956C7.34491 4.54381 7.3125 4.25748 7.3125 3.96373C7.3125 1.77814 9.09064 0 11.2762 0C13.4618 0 15.24 1.77814 15.24 3.96373C15.24 5.19049 14.6797 6.28885 13.8017 7.01642C14.9623 7.47729 15.9626 8.25101 16.6952 9.24609H14.8022C13.9286 8.47183 12.7991 7.98047 11.5582 7.9173C11.4649 7.92389 11.371 7.92746 11.2762 7.92746C11.0185 7.92746 10.7665 7.90247 10.5224 7.85522ZM8.71875 3.96373C8.71875 5.37396 9.866 6.52121 11.2762 6.52121C12.6863 6.52121 13.8337 5.37396 13.8337 3.96373C13.8337 2.5535 12.6863 1.40625 11.2762 1.40625C9.866 1.40625 8.71875 2.5535 8.71875 3.96373ZM9.21094 8.71875C9.21094 7.30357 8.05971 6.15234 6.64453 6.15234C5.22935 6.15234 4.07812 7.30357 4.07812 8.71875C4.07812 10.1339 5.22935 11.2852 6.64453 11.2852C8.05971 11.2852 9.21094 10.1339 9.21094 8.71875Z" fill="#AAAAAA"/>
</svg>
