<svg xmlns="http://www.w3.org/2000/svg" viewBox="0 0 22 25" width="22" height="25">
	<style>
		tspan { white-space:pre }
		.shp0 { fill: #757575 } 
	</style>
	<g id="Main Content - 2">
		<g id="Tabbing">
			<path id="Forma 1" class="shp0" d="M6.54 13.29C6.54 12.64 6.09 12.26 5.31 12.26C4.99 12.26 4.78 12.29 4.66 12.32L4.66 14.39C4.8 14.43 4.96 14.44 5.19 14.44C6.02 14.44 6.54 14.01 6.54 13.29ZM11.38 12.28C11.03 12.28 10.81 12.31 10.67 12.34L10.67 16.94C10.81 16.97 11.02 16.97 11.22 16.97C12.64 16.98 13.57 16.19 13.57 14.51C13.58 13.05 12.73 12.28 11.38 12.28ZM20.67 9.58L20.1 9.58L20.1 6.8C20.1 6.78 20.1 6.76 20.09 6.74C20.09 6.63 20.06 6.52 19.98 6.44L15.41 1.15C15.41 1.15 15.41 1.15 15.41 1.15C15.38 1.12 15.35 1.09 15.31 1.07C15.3 1.06 15.29 1.06 15.28 1.05C15.25 1.04 15.22 1.02 15.19 1.01C15.18 1.01 15.17 1.01 15.17 1.01C15.13 1 15.1 0.99 15.06 0.99L3.82 0.99C3.3 0.99 2.89 1.41 2.89 1.93L2.89 9.58L2.32 9.58C1.58 9.58 0.99 10.18 0.99 10.92L0.99 17.92C0.99 18.66 1.58 19.26 2.32 19.26L2.89 19.26L2.89 24.05C2.89 24.57 3.3 24.99 3.82 24.99L19.17 24.99C19.68 24.99 20.1 24.57 20.1 24.05L20.1 19.26L20.67 19.26C21.4 19.26 22 18.66 22 17.92L22 10.92C22 10.18 21.4 9.58 20.67 9.58ZM3.82 1.93L14.59 1.93L14.59 6.75C14.59 7.01 14.8 7.22 15.06 7.22L19.17 7.22L19.17 9.58L3.82 9.58L3.82 1.93ZM15.24 14.46C15.24 15.8 14.75 16.73 14.08 17.3C13.35 17.92 12.24 18.21 10.88 18.21C10.06 18.21 9.49 18.16 9.1 18.11L9.1 11.2C9.67 11.11 10.43 11.06 11.22 11.06C12.54 11.06 13.39 11.3 14.06 11.81C14.79 12.35 15.24 13.22 15.24 14.46ZM3.11 18.14L3.11 11.2C3.59 11.12 4.27 11.06 5.23 11.06C6.2 11.06 6.89 11.25 7.35 11.62C7.8 11.98 8.09 12.56 8.09 13.25C8.09 13.94 7.87 14.52 7.46 14.92C6.92 15.43 6.13 15.66 5.2 15.66C4.99 15.66 4.81 15.65 4.66 15.63L4.66 18.14L3.11 18.14L3.11 18.14ZM19.17 23.8L3.82 23.8L3.82 19.26L19.17 19.26L19.17 23.8ZM20.52 12.41L17.85 12.41L17.85 14.02L20.34 14.02L20.34 15.31L17.85 15.31L17.85 18.14L16.27 18.14L16.27 11.11L20.52 11.11L20.52 12.41Z" />
		</g>
	</g>
</svg>