<svg xmlns="http://www.w3.org/2000/svg" viewBox="0 0 23 22" width="23" height="22">
	<style>
		tspan { white-space:pre }
		.shp0 { fill: #757575 } 
	</style>
	<g id="Main Content">
		<g id="Organization - Tab">
			<path id="Shape 1" class="shp0" d="M19.52 13.11C19.03 12.62 18.45 12.35 17.84 12.35C17.23 12.35 16.65 12.61 16.14 13.11L14.58 14.66C14.45 14.59 14.32 14.53 14.2 14.46C14.02 14.38 13.85 14.29 13.71 14.2C12.24 13.28 10.91 12.07 9.63 10.51C9.01 9.73 8.59 9.07 8.29 8.41C8.69 8.04 9.07 7.65 9.44 7.28C9.58 7.15 9.72 7 9.85 6.87C10.9 5.83 10.9 4.49 9.85 3.45L8.5 2.11C8.35 1.96 8.19 1.8 8.04 1.64C7.74 1.34 7.43 1.02 7.11 0.72C6.63 0.25 6.05 0 5.45 0C4.84 0 4.26 0.25 3.76 0.72C3.76 0.73 3.76 0.73 3.75 0.73L2.07 2.42C1.43 3.06 1.07 3.82 0.99 4.72C0.87 6.16 1.3 7.5 1.63 8.37C2.43 10.53 3.63 12.52 5.42 14.66C7.59 17.24 10.2 19.27 13.19 20.71C14.33 21.25 15.85 21.88 17.55 21.99C17.65 21.99 17.76 22 17.86 22C19 22 19.97 21.59 20.72 20.78C20.72 20.77 20.73 20.76 20.74 20.75C21 20.44 21.29 20.16 21.61 19.86C21.82 19.66 22.04 19.45 22.25 19.23C22.74 18.72 23 18.13 23 17.52C23 16.91 22.74 16.32 22.24 15.83L19.52 13.11ZM21.29 18.3C21.28 18.3 21.28 18.31 21.29 18.3C21.1 18.51 20.9 18.7 20.69 18.9C20.36 19.21 20.04 19.53 19.73 19.89C19.23 20.42 18.64 20.67 17.86 20.67C17.79 20.67 17.71 20.67 17.64 20.67C16.16 20.58 14.8 20 13.77 19.52C10.96 18.17 8.5 16.25 6.45 13.82C4.76 11.79 3.63 9.92 2.88 7.91C2.42 6.68 2.26 5.73 2.33 4.82C2.38 4.25 2.6 3.77 3.01 3.36L4.7 1.68C4.95 1.45 5.2 1.33 5.46 1.33C5.77 1.33 6.02 1.52 6.18 1.68C6.19 1.68 6.19 1.69 6.2 1.69C6.5 1.97 6.79 2.26 7.09 2.57C7.24 2.73 7.4 2.89 7.56 3.05L8.91 4.4C9.44 4.92 9.44 5.4 8.91 5.92C8.77 6.07 8.63 6.21 8.49 6.35C8.07 6.77 7.67 7.17 7.24 7.55C7.23 7.56 7.22 7.56 7.22 7.57C6.79 8 6.87 8.41 6.96 8.69C6.96 8.71 6.97 8.72 6.97 8.74C7.33 9.59 7.82 10.38 8.58 11.34L8.58 11.34C9.95 13.02 11.39 14.32 12.98 15.32C13.19 15.45 13.39 15.55 13.59 15.65C13.77 15.74 13.94 15.82 14.08 15.91C14.1 15.92 14.12 15.94 14.14 15.95C14.31 16.03 14.47 16.07 14.63 16.07C15.04 16.07 15.3 15.81 15.39 15.73L17.08 14.05C17.25 13.88 17.52 13.68 17.83 13.68C18.14 13.68 18.39 13.87 18.54 14.04C18.55 14.04 18.55 14.04 18.55 14.05L21.28 16.76C21.8 17.26 21.8 17.78 21.29 18.3Z" />
		</g>
	</g>
</svg>