<svg width="17" height="18" viewBox="0 0 17 18" fill="none" xmlns="http://www.w3.org/2000/svg">
<path d="M3.66629 14.8092C3.79353 14.6819 3.85714 14.5312 3.85714 14.3571C3.85714 14.183 3.79353 14.0324 3.66629 13.9051C3.53906 13.7779 3.38839 13.7143 3.21429 13.7143C3.04018 13.7143 2.88951 13.7779 2.76228 13.9051C2.63504 14.0324 2.57143 14.183 2.57143 14.3571C2.57143 14.5312 2.63504 14.6819 2.76228 14.8092C2.88951 14.9364 3.04018 15 3.21429 15C3.38839 15 3.53906 14.9364 3.66629 14.8092ZM10.3259 10.1384L3.47545 16.9888C3.22768 17.2366 2.92634 17.3605 2.57143 17.3605C2.22321 17.3605 1.91853 17.2366 1.65737 16.9888L0.592634 15.904C0.33817 15.6629 0.210938 15.3616 0.210938 15C0.210938 14.6451 0.33817 14.3404 0.592634 14.0859L7.43304 7.24554C7.6942 7.90179 8.07589 8.48437 8.57813 8.9933C9.08705 9.49554 9.66964 9.87723 10.3259 10.1384ZM16.6942 5.76897C16.6942 6.03013 16.6172 6.38504 16.4632 6.83371C16.1484 7.73103 15.596 8.46094 14.8058 9.02344C14.0223 9.57924 13.1585 9.85714 12.2143 9.85714C10.9754 9.85714 9.91406 9.41853 9.03013 8.54129C8.1529 7.65737 7.71429 6.59598 7.71429 5.35714C7.71429 4.1183 8.1529 3.06027 9.03013 2.18304C9.91406 1.29911 10.9754 0.857142 12.2143 0.857142C12.6027 0.857142 13.0078 0.914062 13.4297 1.0279C13.8583 1.13504 14.2199 1.28906 14.5145 1.48995C14.6217 1.56362 14.6752 1.65737 14.6752 1.7712C14.6752 1.88504 14.6217 1.97879 14.5145 2.05245L11.5714 3.75V6L13.51 7.07478C13.5435 7.05469 13.808 6.89397 14.3036 6.59263C14.7991 6.2846 15.2511 6.01339 15.6596 5.77902C16.0748 5.53795 16.3125 5.41741 16.3728 5.41741C16.4732 5.41741 16.5502 5.45089 16.6038 5.51786C16.6641 5.58482 16.6942 5.66853 16.6942 5.76897Z" fill="#757575" fill-opacity="0.75"/>
</svg>
