<?xml version="1.0" encoding="utf-8"?>
<!-- Generator: Adobe Illustrator 23.0.1, SVG Export Plug-In . SVG Version: 6.00 Build 0)  -->
<svg version="1.1" xmlns="http://www.w3.org/2000/svg" xmlns:xlink="http://www.w3.org/1999/xlink" x="0px" y="0px"
	viewBox="0 0 50 50" style="enable-background:new 0 0 50 50;" xml:space="preserve" fill="#757575">
	<style type="text/css">
		.st0{enable-background:new    ;}
		.st1{fill-rule:evenodd;clip-rule:evenodd;}
	</style>
	<g id="Ellipse_1_1_" class="st0">
		<g id="Ellipse_1">
			<g>
				<path d="M25,2c12.7,0,23,10.3,23,23S37.7,48,25,48S2,37.7,2,25S12.3,2,25,2 M25,0C11.2,0,0,11.2,0,25s11.2,25,25,25
					s25-11.2,25-25S38.8,0,25,0L25,0z"/>
				</g>
			</g>
		</g>
		<g id="Forma_1_1_" class="st0">
			<g id="Forma_1">
				<g>
					<path class="st1" d="M21.2,23.9l2.7-2.7c-0.4-0.6-0.6-1.2-0.5-1.9L16.1,12L12,16.1l7.4,7.3C20,23.4,20.7,23.5,21.2,23.9z
						M34.4,32.6l-0.3,0.3l-4.7-4.7l-1.2,1.1L33,34l-0.3,0.3l1.1,1.4l3.7,2.3l0.6-0.6l-2.4-3.7L34.4,32.6z M31.5,23.8
						c2,0.6,4.3,0.2,5.9-1.4c1.5-1.5,2-3.6,1.5-5.5l-3.3,3.2l-3.2-0.9l-0.9-3.2l3.3-3.2c-1.9-0.5-4.1,0-5.6,1.5
						c-1.5,1.5-2,3.7-1.5,5.6L14.2,33.3c-1.1,1.1-1.1,2.8,0,3.8c0.5,0.5,1.2,0.8,1.9,0.8c0.7,0,1.4-0.3,1.9-0.8L31.5,23.8L31.5,23.8z
						M15.9,36.7c-0.6,0-1-0.5-1-1c0-0.6,0.5-1,1-1c0.6,0,1,0.5,1,1C16.9,36.2,16.4,36.7,15.9,36.7z"/>
					</g>
				</g>
			</g>
		</svg>
