<svg height="512pt" viewBox="0 0 512 512.00047" width="512pt" xmlns="http://www.w3.org/2000/svg" fill="#757575"><path d="m482.421875 136.527344 23.699219-23.699219c12.554687-12.554687 3.664062-34.144531-14.140625-34.144531h-58.664063v-58.660156c0-17.757813-21.554687-26.730469-34.144531-14.144532l-23.699219 23.699219c-36.671875-19.371094-77.660156-29.5546875-119.484375-29.5546875-141.476562 0-255.988281 114.4921875-255.988281 255.9882815 0 141.476562 114.492188 255.988281 255.988281 255.988281 141.476563 0 255.988281-114.492188 255.988281-255.988281 0-41.824219-10.179687-82.808594-29.554687-119.484375zm-69.105469-17.84375h30.378906l-38.664062 38.664062h-50.378906v-50.378906l38.664062-38.664062v30.378906c0 11.046875 8.953125 20 20 20zm-157.328125 353.320312c-119.371093 0-215.988281-96.605468-215.988281-215.992187 0-119.371094 96.601562-215.992188 215.988281-215.992188 31.101563 0 61.644531 6.664063 89.625 19.421875l-25.101562 25.101563c-3.75 3.75-5.859375 8.835937-5.859375 14.140625v70.378906l-72.804688 72.808594c-7.808594 7.808594-7.808594 20.472656 0 28.28125s20.472656 7.8125 28.285156 0l72.804688-72.804688h70.378906c5.304688 0 10.390625-2.109375 14.140625-5.855468l25.105469-25.105469c12.757812 27.980469 19.417969 58.523437 19.417969 89.625 0 119.371093-96.601563 215.992187-215.992188 215.992187zm157.710938-215.992187c0 86.960937-70.746094 157.710937-157.710938 157.710937-86.960937 0-157.710937-70.75-157.710937-157.710937 0-86.960938 70.75-157.710938 157.710937-157.710938 11.046875 0 20 8.953125 20 20s-8.953125 20-20 20c-64.90625 0-117.710937 52.804688-117.710937 117.710938s52.804687 117.710937 117.710937 117.710937 117.714844-52.804687 117.714844-117.710937c0-11.046875 8.953125-20 19.996094-20 11.046875 0 20 8.953125 20 20zm0 0"/></svg>