<?xml version="1.0" encoding="utf-8"?>
<!-- Generator: Adobe Illustrator 23.0.1, SVG Export Plug-In . SVG Version: 6.00 Build 0)  -->
<svg version="1.1" id="Layer_1" xmlns="http://www.w3.org/2000/svg" xmlns:xlink="http://www.w3.org/1999/xlink" x="0px" y="0px"
	 viewBox="0 0 25 25" style="enable-background:new 0 0 25 25;" xml:space="preserve">
<style type="text/css">
	.st0{fill:#757575;}
</style>
<path class="st0" d="M15.7,4l1.4-1.4L19.6,5L23.6,1L25,2.3l-5.4,5.4L15.7,4z M23.5,6.6c1,1.8,1.5,3.8,1.5,5.9c0,3.3-1.3,6.5-3.7,8.8
	C19,23.7,15.8,25,12.5,25c-3.3,0-6.5-1.3-8.8-3.6C1.3,19,0,15.8,0,12.5C0,9.2,1.3,6,3.7,3.7C6,1.3,9.2,0,12.5,0
	c1.3,0,2.6,0.2,3.8,0.6l-1.6,1.6C14,2.1,13.3,2,12.5,2C6.7,2,2,6.7,2,12.5c0,2.7,1,5.1,2.6,6.9c0.6-2.5,2.3-4.6,4.7-5.7
	c-1-0.9-1.6-2.2-1.6-3.6c0-2.7,2.2-4.8,4.8-4.8c2.7,0,4.8,2.2,4.8,4.8c0,1.4-0.6,2.7-1.6,3.6c2.3,1,4.1,3.1,4.7,5.7
	c1.6-1.9,2.6-4.3,2.6-6.9c0-1.6-0.4-3.1-1-4.5L23.5,6.6z M12.5,13.1c1.6,0,2.9-1.3,2.9-2.9c0-1.6-1.3-2.9-2.9-2.9
	c-1.6,0-2.9,1.3-2.9,2.9C9.6,11.8,10.9,13.1,12.5,13.1z M12.5,23.1c2.3,0,4.4-0.7,6.2-2c-0.1-3.3-2.8-6-6.2-6s-6.1,2.7-6.2,6
	C8.1,22.3,10.2,23.1,12.5,23.1z"/>
</svg>
