<svg xmlns="http://www.w3.org/2000/svg" viewBox="0 0 27 26" width="27" height="26">
	<style>
		tspan { white-space:pre }
		.shp0 { fill: #757575 } 
	</style>
	<g id="Main Content">
		<g id="Group 14 copy">
			<path id="Forma 1 copy" class="shp0" d="M13.96 15.03C17.8 15.03 20.92 11.88 20.92 8C20.92 4.12 17.8 1 13.96 1C10.11 1 7 4.15 7 8C7 11.86 10.11 15.03 13.96 15.03ZM13.96 2.83C16.77 2.83 19.08 5.16 19.08 8C19.08 10.85 16.77 13.18 13.96 13.18C11.14 13.18 8.83 10.85 8.83 8C8.83 5.16 11.14 2.83 13.96 2.83ZM1.92 26L26.08 26C26.59 26 27 25.59 27 25.07C27 20.22 23.09 16.26 18.27 16.26L9.73 16.26C4.93 16.26 1 20.2 1 25.07C1 25.59 1.41 26 1.92 26ZM9.73 18.11L18.27 18.11C21.77 18.11 24.65 20.74 25.1 24.15L2.9 24.15C3.35 20.76 6.23 18.11 9.73 18.11Z" />
		</g>
	</g>
</svg>