<svg width="12" height="14" viewBox="0 0 12 14" fill="none" xmlns="http://www.w3.org/2000/svg">
<path d="M10.0625 5.05469C10.375 5.05469 10.6536 5.11458 10.8984 5.23437C11.6328 5.5625 12 6.15104 12 7V8.38281C12 8.8724 11.9401 9.35677 11.8203 9.83594L11.1563 12.4844C11.0469 12.9323 10.8099 13.2969 10.4453 13.5781C10.0859 13.8594 9.67708 14 9.21875 14H4C3.44792 14 2.97656 13.8047 2.58594 13.4141C2.19531 13.0234 2 12.5521 2 12V8.86719L0.132813 3.96094C0.0442708 3.72656 0 3.48958 0 3.25C0 2.69792 0.195313 2.22656 0.585938 1.83594C0.976563 1.44531 1.44792 1.25 2 1.25C2.41667 1.25 2.79427 1.36979 3.13281 1.60937C3.47656 1.84375 3.72135 2.15365 3.86719 2.53906L4 2.88281V2C4 1.44792 4.19531 0.976562 4.58594 0.585937C4.97656 0.195312 5.44792 -9.53674e-07 6 -9.53674e-07C6.55208 -9.53674e-07 7.02344 0.195312 7.41406 0.585937C7.80469 0.976562 8 1.44792 8 2V4.03906C8.14063 4.01302 8.26563 4 8.375 4C8.73438 4 9.0651 4.09635 9.36719 4.28906C9.67448 4.47656 9.90625 4.73177 10.0625 5.05469ZM8.375 5C8.20313 5 8.04427 5.04687 7.89844 5.14062C7.75781 5.23437 7.65104 5.35937 7.57813 5.51562L7 6.78906L6.44531 8H6.875C7.13542 8 7.36979 8.08333 7.57813 8.25C7.78646 8.41146 7.91667 8.61979 7.96875 8.875L9.17188 6.23437C9.22396 6.13021 9.25 6.01042 9.25 5.875C9.25 5.63542 9.16406 5.42969 8.99219 5.25781C8.82031 5.08594 8.61458 5 8.375 5ZM10.1016 6.05469C9.98698 6.05469 9.88021 6.07552 9.78125 6.11719C9.6875 6.15885 9.61198 6.20052 9.55469 6.24219C9.5026 6.28385 9.44271 6.36198 9.375 6.47656C9.30729 6.58594 9.26302 6.66406 9.24219 6.71094C9.22135 6.75781 9.17708 6.85417 9.10938 7L8.07813 9.26562C8.02604 9.36979 8 9.48958 8 9.625C8 9.86458 8.08594 10.0703 8.25781 10.2422C8.42969 10.4141 8.63542 10.5 8.875 10.5C9.04688 10.5 9.20313 10.4531 9.34375 10.3594C9.48958 10.2656 9.59896 10.1406 9.67188 9.98437L10.9219 7.23437C10.9688 7.14062 10.9922 7.04167 10.9922 6.9375C10.9922 6.67708 10.9089 6.46615 10.7422 6.30469C10.5755 6.13802 10.362 6.05469 10.1016 6.05469ZM1 3.25C1 3.36458 1.02083 3.48437 1.0625 3.60937L3 8.6875V9.22656L3.79688 8.35937C4.02083 8.11979 4.29688 8 4.625 8H6.17188L7 6.17969V2C7 1.72396 6.90104 1.48958 6.70313 1.29687C6.51042 1.09896 6.27604 0.999999 6 0.999999C5.72396 0.999999 5.48698 1.09896 5.28906 1.29687C5.09635 1.48958 5 1.72396 5 2V7H4.5L2.9375 2.89062C2.86458 2.69792 2.74219 2.54427 2.57031 2.42969C2.39844 2.3099 2.20833 2.25 2 2.25C1.72396 2.25 1.48698 2.34896 1.28906 2.54687C1.09635 2.73958 1 2.97396 1 3.25ZM9.21875 13C9.44792 13 9.65104 12.9297 9.82813 12.7891C10.0104 12.6484 10.1302 12.4661 10.1875 12.2422L10.8516 9.59375C10.9505 9.21354 11 8.8099 11 8.38281V7.67187L9.89844 10.0937C9.8099 10.2917 9.67188 10.4505 9.48438 10.5703C9.29688 10.6901 9.09375 10.75 8.875 10.75C8.59896 10.75 8.35417 10.6615 8.14063 10.4844C7.93229 10.3021 7.80729 10.0755 7.76562 9.80469C7.53646 10.1016 7.23958 10.25 6.875 10.25H5.25V10H6.875C7.11458 10 7.32552 9.91406 7.50781 9.74219C7.6901 9.57031 7.78125 9.36458 7.78125 9.125C7.78125 8.88542 7.70052 8.67969 7.53906 8.50781C7.3776 8.33594 7.17708 8.25 6.9375 8.25H4.625C4.36979 8.25 4.15625 8.34375 3.98438 8.53125L3 9.59375V12C3 12.276 3.09635 12.5104 3.28906 12.7031C3.48698 12.901 3.72396 13 4 13H9.21875Z" fill="white"/>
</svg>
