<svg xmlns="http://www.w3.org/2000/svg" viewBox="0 0 23 25" width="23" height="25">
	<style>
		tspan { white-space:pre }
		.shp0 { fill: #757575 } 
	</style>
	<g id="Main Content - 2">
		<g id="Tabbing">
			<path id="Forma 1" class="shp0" d="M20.67 9.58L20.1 9.58L20.1 6.8C20.1 6.79 20.1 6.77 20.1 6.75C20.1 6.64 20.06 6.53 19.99 6.45L15.42 1.16C15.41 1.16 15.41 1.16 15.41 1.16C15.38 1.13 15.35 1.1 15.32 1.08C15.31 1.07 15.3 1.07 15.29 1.06C15.26 1.04 15.23 1.03 15.2 1.02C15.19 1.02 15.18 1.02 15.17 1.01C15.14 1 15.1 1 15.07 1L3.83 1C3.31 1 2.9 1.42 2.9 1.94L2.9 9.58L2.33 9.58C1.59 9.58 1 10.19 1 10.93L1 17.92C1 18.67 1.59 19.27 2.33 19.27L2.9 19.27L2.9 24.06C2.9 24.58 3.31 25 3.83 25L19.17 25C19.69 25 20.1 24.58 20.1 24.06L20.1 19.27L20.67 19.27C21.41 19.27 22 18.67 22 17.92L22 10.93C22 10.19 21.41 9.58 20.67 9.58ZM3.83 1.94L14.6 1.94L14.6 6.76C14.6 7.02 14.81 7.23 15.07 7.23L19.17 7.23L19.17 9.58L3.83 9.58L3.83 1.94ZM13.25 14.77C12.34 14.45 11.74 13.94 11.74 13.13C11.74 12.18 12.52 11.45 13.82 11.45C14.44 11.45 14.9 11.59 15.22 11.73L14.95 12.75C14.73 12.64 14.33 12.49 13.8 12.49C13.26 12.49 13 12.73 13 13.02C13 13.38 13.31 13.53 14.02 13.81C14.99 14.17 15.44 14.68 15.44 15.47C15.44 16.4 14.73 17.19 13.22 17.19C12.6 17.19 11.98 17.03 11.67 16.85L11.92 15.81C12.25 15.99 12.77 16.16 13.3 16.16C13.87 16.16 14.17 15.92 14.17 15.56C14.17 15.21 13.91 15.01 13.25 14.77ZM11.14 16.05L11.14 17.11L7.71 17.11L7.71 11.54L8.96 11.54L8.96 16.05L11.14 16.05ZM3.72 17.11L2.3 17.11L3.89 14.29L2.35 11.54L3.78 11.54L4.26 12.56C4.43 12.9 4.55 13.17 4.68 13.48L4.7 13.48C4.83 13.13 4.93 12.88 5.07 12.56L5.54 11.54L6.96 11.54L5.41 14.26L7.04 17.11L5.6 17.11L5.1 16.1C4.9 15.71 4.77 15.43 4.61 15.1L4.6 15.1C4.48 15.43 4.35 15.71 4.17 16.1L3.72 17.11ZM19.17 23.8L3.83 23.8L3.83 19.27L19.17 19.27L19.17 23.8ZM19.18 17.11L18.68 16.1C18.48 15.71 18.35 15.43 18.19 15.1L18.18 15.1C18.06 15.43 17.92 15.71 17.75 16.1L17.3 17.11L15.88 17.11L17.47 14.29L15.93 11.54L17.36 11.54L17.84 12.56C18.01 12.9 18.13 13.17 18.26 13.48L18.28 13.48C18.41 13.13 18.51 12.88 18.65 12.56L19.12 11.54L20.54 11.54L18.99 14.26L20.62 17.11L19.18 17.11L19.18 17.11Z" />
		</g>
	</g>
</svg>